<mxfile host="app.diagrams.net" modified="2024-04-04T10:45:38.647Z" agent="Mozilla/5.0 (Windows NT 10.0; Win64; x64) AppleWebKit/537.36 (KHTML, like Gecko) Chrome/123.0.0.0 Safari/537.36 Edg/123.0.0.0" etag="7mFgRQI69Y4tYBDidk2N" version="24.2.2" type="github">
  <diagram name="Page-1" id="XT1h4gcSgJv49bmkkCZl">
    <mxGraphModel dx="360" dy="191" grid="1" gridSize="10" guides="1" tooltips="1" connect="1" arrows="1" fold="1" page="1" pageScale="1" pageWidth="827" pageHeight="1169" math="0" shadow="0">
      <root>
        <mxCell id="0" />
        <mxCell id="1" parent="0" />
        <mxCell id="uaMQ9CX6y1vKgLMHjzCg-2" value="交易服务-创建委托单" style="rounded=0;whiteSpace=wrap;html=1;" vertex="1" parent="1">
          <mxGeometry x="160" y="190" width="120" height="60" as="geometry" />
        </mxCell>
        <mxCell id="uaMQ9CX6y1vKgLMHjzCg-3" value="购买流程" style="text;html=1;align=center;verticalAlign=middle;resizable=0;points=[];autosize=1;strokeColor=none;fillColor=none;" vertex="1" parent="1">
          <mxGeometry x="270" y="140" width="70" height="30" as="geometry" />
        </mxCell>
        <mxCell id="uaMQ9CX6y1vKgLMHjzCg-4" value="" style="endArrow=classic;html=1;rounded=0;exitX=1;exitY=0.5;exitDx=0;exitDy=0;" edge="1" parent="1" source="uaMQ9CX6y1vKgLMHjzCg-2" target="uaMQ9CX6y1vKgLMHjzCg-5">
          <mxGeometry width="50" height="50" relative="1" as="geometry">
            <mxPoint x="390" y="350" as="sourcePoint" />
            <mxPoint x="340" y="220" as="targetPoint" />
          </mxGeometry>
        </mxCell>
        <mxCell id="uaMQ9CX6y1vKgLMHjzCg-5" value="资产服务-扣钱-给用户id加锁" style="rounded=0;whiteSpace=wrap;html=1;" vertex="1" parent="1">
          <mxGeometry x="320" y="190" width="120" height="60" as="geometry" />
        </mxCell>
      </root>
    </mxGraphModel>
  </diagram>
</mxfile>
